HIERARCHY
ROOT Hips
{
  OFFSET 0.0 0.0 0.0
  CHANNELS 6 Xposition Yposition Zposition Zrotation Yrotation Xrotation
  JOINT LHipJoint
  {
    OFFSET 0.0 0.0 0.0
    CHANNELS 3 Zrotation Yrotation Xrotation
    JOINT LeftUpLeg
    {
      OFFSET 1.363059998 -1.794630051 0.839290023
      CHANNELS 3 Zrotation Yrotation Xrotation
      JOINT LeftLeg
      {
        OFFSET 2.448110104 -6.726130009 0.0
        CHANNELS 3 Zrotation Yrotation Xrotation
        JOINT LeftFoot
        {
          OFFSET 2.562200069 -7.039589882 0.0
          CHANNELS 3 Zrotation Yrotation Xrotation
          JOINT LeftToeBase
          {
            OFFSET 0.157639995 -0.433109999 2.322550058
            CHANNELS 3 Zrotation Yrotation Xrotation
            End Site
            {
              OFFSET 0.0 -0.0 1.189659953
            }
          }
        }
      }
    }
  }
  JOINT RHipJoint
  {
    OFFSET 0.0 0.0 0.0
    CHANNELS 3 Zrotation Yrotation Xrotation
    JOINT RightUpLeg
    {
      OFFSET -1.305520058 -1.794630051 0.839290023
      CHANNELS 3 Zrotation Yrotation Xrotation
      JOINT RightLeg
      {
        OFFSET -2.54253006 -6.985549927 0.0
        CHANNELS 3 Zrotation Yrotation Xrotation
        JOINT RightFoot
        {
          OFFSET -2.568259954 -7.056230068 0.0
          CHANNELS 3 Zrotation Yrotation Xrotation
          JOINT RightToeBase
          {
            OFFSET -0.164729998 -0.452589989 2.363149881
            CHANNELS 3 Zrotation Yrotation Xrotation
            End Site
            {
              OFFSET -0.0 -0.0 1.21081996
            }
          }
        }
      }
    }
  }
  JOINT LowerBack
  {
    OFFSET 0.0 0.0 0.0
    CHANNELS 3 Zrotation Yrotation Xrotation
    JOINT Spine
    {
      OFFSET 0.028270001 2.035589933 -0.193379998
      CHANNELS 3 Zrotation Yrotation Xrotation
      JOINT Spine1
      {
        OFFSET 0.05672 2.04885006 -0.042750001
        CHANNELS 3 Zrotation Yrotation Xrotation
        JOINT Neck
        {
          OFFSET 0.0 0.0 0.0
          CHANNELS 3 Zrotation Yrotation Xrotation
          JOINT Neck1
          {
            OFFSET -0.054170001 1.74624002 0.172020003
            CHANNELS 3 Zrotation Yrotation Xrotation
            JOINT Head
            {
              OFFSET 0.10407 1.761360049 -0.123970002
              CHANNELS 3 Zrotation Yrotation Xrotation
              End Site
              {
                OFFSET 0.0372 1.770439982 -0.062410001
              }
            }
          }
        }
        JOINT LeftShoulder
        {
          OFFSET 0.0 0.0 0.0
          CHANNELS 3 Zrotation Yrotation Xrotation
          JOINT LeftArm
          {
            OFFSET 3.362410069 1.200889945 -0.311210006
            CHANNELS 3 Zrotation Yrotation Xrotation
            JOINT LeftForeArm
            {
              OFFSET 4.982999802 -0.0 -0.0
              CHANNELS 3 Zrotation Yrotation Xrotation
              JOINT LeftHand
              {
                OFFSET 3.483560085 -0.0 -0.0
                CHANNELS 3 Zrotation Yrotation Xrotation
                JOINT LeftFingerBase
                {
                  OFFSET 0.0 0.0 0.0
                  CHANNELS 3 Zrotation Yrotation Xrotation
                  JOINT LeftHandIndex1
                  {
                    OFFSET 0.715260029 -0.0 -0.0
                    CHANNELS 3 Zrotation Yrotation Xrotation
                    End Site
                    {
                      OFFSET 0.576659977 -0.0 -0.0
                    }
                  }
                }
                JOINT LThumb
                {
                  OFFSET 0.0 0.0 0.0
                  CHANNELS 3 Zrotation Yrotation Xrotation
                  End Site
                  {
                    OFFSET 0.585470021 -0.0 0.585470021
                  }
                }
              }
            }
          }
        }
        JOINT RightShoulder
        {
          OFFSET 0.0 0.0 0.0
          CHANNELS 3 Zrotation Yrotation Xrotation
          JOINT RightArm
          {
            OFFSET -3.136600018 1.374050021 -0.404650003
            CHANNELS 3 Zrotation Yrotation Xrotation
            JOINT RightForeArm
            {
              OFFSET -5.241899967 -0.0 -0.0
              CHANNELS 3 Zrotation Yrotation Xrotation
              JOINT RightHand
              {
                OFFSET -3.444169998 -0.0 -0.0
                CHANNELS 3 Zrotation Yrotation Xrotation
                JOINT RightFingerBase
                {
                  OFFSET 0.0 0.0 0.0
                  CHANNELS 3 Zrotation Yrotation Xrotation
                  JOINT RightHandIndex1
                  {
                    OFFSET -0.622529984 -0.0 -0.0
                    CHANNELS 3 Zrotation Yrotation Xrotation
                    End Site
                    {
                      OFFSET -0.501900017 -0.0 -0.0
                    }
                  }
                }
                JOINT RThumb
                {
                  OFFSET 0.0 0.0 0.0
                  CHANNELS 3 Zrotation Yrotation Xrotation
                  End Site
                  {
                    OFFSET -0.509559989 -0.0 0.509559989
                  }
                }
              }
            }
          }
        }
      }
    }
  }
}
MOTION
Frames: 4
Frame Time: 0.0083333
8.700853348 23.544000626 43.279907227 -158.184005737 78.28918457 -149.317016602 0.0 -0.0 0.0 -19.895004272 4.420600414 -14.245303154 0.40139994 4.067499638 11.266601562 0.026399989 -1.567600489 4.063101292 0.071800001 1.728800535 4.756801605 0.0 -0.0 0.0 18.629102707 24.328401566 -56.676399231 -18.073581696 -19.910795212 84.359512329 -2.974400759 4.957700253 -31.566102982 -1.039399624 -6.48390007 18.195198059 -5.644300461 -3.905500412 20.526802063 5.449500084 -5.317100048 6.849598885 10.331000328 -2.549099445 -2.846899748 -10.1352005 -4.952800751 -11.979901314 11.695002556 -3.036700964 -22.459701538 5.414000511 -0.712400079 -4.378900528 0.0 -0.0 0.0 -59.362197876 -70.511100769 9.283793449 28.057296753 -39.168994904 -10.159895897 0.0 -0.0 25.108299255 20.746301651 -9.600396156 -3.6147995 -7.125 0.0 0.0 -4.438399792 19.743095398 2.686199903 0.0 -0.0 0.0 53.925300598 4.292999268 19.736499786 -127.191604614 54.067180634 -91.567108154 0.0 0.0 -21.532899857 2.90590024 -8.967000008 -0.453300089 7.125 -0.0 0.0 25.106296539 -37.718791962 4.877300739 
8.714053154 23.5958004 43.232208252 -158.464996338 78.505905151 -149.565002441 0.0 -0.0 0.0 -19.830101013 5.212200165 -14.509200096 0.407299966 4.096999168 11.34969902 0.076999992 -0.990800083 5.705500603 0.097599976 2.01480031 5.546699524 0.0 -0.0 0.0 19.286096573 23.605102539 -55.985603333 -17.709192276 -19.873691559 83.288505554 -2.843799829 1.098300099 -31.664897919 -0.308799982 -3.572399378 9.876797676 -5.019701481 -4.068899632 20.38860321 4.899400711 -5.45609951 6.757599831 9.366897583 -2.598499537 -2.982199907 -11.55050087 -5.022799015 -14.148694038 13.26129818 -2.987400055 -18.586603165 6.032599926 -0.650099814 -2.782800198 0.0 -0.0 0.0 -63.808940887 -69.676010132 13.253339767 28.3458004 -39.432704926 -10.342597008 0.0 -0.0 26.501802444 21.700201035 -9.07060051 -3.589900494 -7.125 0.0 0.0 -3.746100187 20.240200043 2.223499537 0.0 -0.0 0.0 54.741901398 4.127501488 19.977502823 -128.228866577 53.685302734 -92.40499115 0.0 0.0 -19.479799271 3.259499788 -9.989898682 -0.565999866 7.125 -0.0 0.0 25.725500107 -38.616405487 4.395702362 
8.725152969 23.665599823 43.180210114 -158.61000061 78.274688721 -149.955993652 0.0 -0.0 0.0 -19.217498779 5.211598873 -14.555296898 0.44600001 4.285000324 11.879899979 0.146400005 0.064800009 7.203699112 0.582000017 4.884901047 13.580500603 0.0 -0.0 0.0 19.82289505 22.953201294 -54.888904572 -17.39680481 -19.836704254 82.368888855 -2.881900311 1.280299902 -31.831802368 -0.367699981 -3.895100355 10.781699181 -4.002099514 -4.364699841 20.512300491 4.0627985 -5.702299118 6.725798607 7.918200016 -2.686000109 -3.247799635 -8.348796844 -4.756299496 -13.792396545 12.0773983 -3.138100147 -18.720499039 5.10270071 -0.915499985 -2.963500023 0.0 -0.0 0.0 -57.694999695 -68.884803772 11.275997162 28.160301208 -39.263408661 -10.225004196 0.0 -0.0 23.080999374 22.191701889 -8.522100449 -3.459400654 -7.125 0.0 0.0 -3.381500244 20.794301987 1.964100122 0.0 -0.0 0.0 56.135005951 3.897099733 20.058797836 -129.356491089 53.251804352 -93.311096191 0.0 0.0 -17.430698395 3.841599464 -10.529601097 -0.70299989 7.125 -0.0 0.0 26.376098633 -39.053100586 4.215201378 
8.739553452 23.744499207 43.123607635 -158.628997803 78.087295532 -150.108016968 0.0 -0.0 0.0 -18.353204727 4.136499405 -13.935700417 0.434799999 4.231400013 11.728697777 0.218800008 1.231899858 8.487401009 0.735599935 5.479198933 15.280594826 0.0 -0.0 0.0 20.307601929 22.573200226 -53.9518013 -17.063901901 -19.791992188 81.386711121 -2.879600286 1.308500171 -31.810995102 -0.432099879 -4.218599319 11.692399025 -3.808000803 -4.680501461 20.763702393 3.854499817 -6.099300861 6.595099926 7.694900513 -2.866899967 -3.502500534 -6.791998386 -4.280499458 -14.204801559 10.793697357 -2.827300072 -18.243499756 4.424598694 -0.820599854 -2.865899801 0.0 -0.0 0.0 -55.604995728 -67.619499207 10.048487663 28.198907852 -39.298698425 -10.249404907 0.0 -0.0 22.675895691 22.025598526 -9.855301857 -3.960999966 -7.125 0.0 0.0 -3.531600237 19.376401901 2.164000273 0.0 -0.0 0.0 56.229194641 4.216400623 20.324300766 -129.782211304 53.083000183 -93.651802063 0.0 0.0 -15.819397926 4.423900127 -9.870799065 -0.759800076 7.125 -0.0 0.0 26.609102249 -38.411598206 4.723299503 
